<svg xmlns="http://www.w3.org/2000/svg" xmlns:xlink="http://www.w3.org/1999/xlink" version="1.1" x="0px" y="0px" viewBox="0 0 100 125" enable-background="new 0 0 100 100" xml:space="preserve"><g><ellipse transform="matrix(-0.4741 -0.8805 0.8805 -0.4741 -31.3043 121.6314)" cx="20.675" cy="70.165" rx="0.383" ry="0.883"/><path d="M22.808,60.812c-0.271,0.057-0.444,0.321-0.388,0.591c0.056,0.271,0.323,0.441,0.591,0.388   c0.016-0.004,1.437-0.282,2.068,0.79c0.093,0.158,0.26,0.246,0.431,0.246c0.087,0,0.174-0.022,0.254-0.069   c0.238-0.14,0.317-0.447,0.177-0.685C24.946,60.386,22.894,60.793,22.808,60.812z"/><path d="M95.155,69.787c-0.101-0.305-0.453-0.477-0.865-0.579c-0.001,0-0.002-0.001-0.003-0.001s-0.002,0-0.003,0   c-0.79-0.193-1.815-0.115-1.832-0.113c0.074-0.015,0.138,0.003,0.096-0.025c-0.542-0.352-1.301-0.618-3.459,0.652   c-0.003,0.003-0.231,0.11-0.806,0.008c0.192-0.137,0.343-0.31,0.424-0.533c0.118-0.325,0.104-0.604-0.04-0.83   c-0.242-0.378-0.695-0.414-1.22-0.457c-0.392-0.031-0.836-0.067-1.271-0.23c-0.987-0.37-4.227-0.529-6.009,0.184   c-0.557-1.051-1.198-1.787-1.555-2.15c2.497-1.608,4.21-3.784,4.859-6.218c0.688-2.579,0.178-5.293-1.518-8.066   c-4.203-6.878-22.118-9.29-24.019-9.347c-1.45-0.039-9.068-0.086-16.87,3.276c-5.867,2.529-9.228,5.569-11.451,7.58   c-0.424,0.383-0.799,0.723-1.134,1.004c-1.869,1.569-5.616,1.969-6.474,2.042c-1.594-1.32-3.836-1.996-5.92-1.767   c-0.005,0.001-0.01,0.004-0.015,0.005c-0.005,0.001-0.01-0.001-0.014,0c-0.137,0.024-1.688,0.313-3.424,1.186   c-0.866-1.455-1.704-1.881-3.223-1.699c-1.306,0.159-1.957,0.94-2.227,1.384c-0.439,0.062-0.704,0.289-0.855,0.489   c-0.646,0.851-0.167,2.426-0.064,2.733c0.359,1.076,0.875,1.707,1.531,1.877c0.094,0.024,0.183,0.03,0.271,0.035   c-0.15,0.421-0.28,0.86-0.36,1.339c-0.986,5.929,1.325,8.838,5.375,11.612c0.593,0.405,1.95,0.505,2.245,0.521   c0.002,0,0.003,0,0.006,0c0.19,0,3.18-0.014,4.903-0.835c0.475-0.226,0.788-0.435,1.04-0.603c0.437-0.293,0.556-0.371,1.167-0.25   l2.031,0.049c0.147,0.001,0.3-0.063,0.397-0.183c0.098-0.118,0.136-0.275,0.103-0.426l-0.3-1.35l2.558-1.479   c0.398-0.059,1.193-0.317,1.574-1.058c0.429-0.834,0.183-1.946-0.732-3.312c-0.047-0.069-0.133-0.253-0.103-0.382   c0.005-0.023,0.021-0.088,0.132-0.167c0.748-0.153,3.329-0.715,4.449-1.354c1.404,0.931,4.137,1.443,6.13,1.789   c-0.634,0.69-1.177,1.815-0.969,3.457c0.045,0.354,0.079,0.666,0.109,0.946c0.233,2.121,0.361,2.623,2.625,4.141   c1.927,1.293,8.098,1.262,15.232,1.23c2.535-0.011,5.154-0.023,7.685,0.024c1.399,0.026,2.903,0.039,4.496,0.039   c0.845,0,1.715-0.003,2.607-0.011c0.706-0.005,1.437-0.051,2.151-0.095c0.605-0.038,1.2-0.075,1.758-0.085   c0.608-0.009,1.167,0.01,1.711,0.03c0.434,0.017,0.856,0.032,1.287,0.032c3.617-0.003,6.271-0.398,6.743-0.473   c0.394,0.055,0.716,0.128,1.044,0.203c0.776,0.177,1.575,0.359,3.33,0.359c0.337,0,0.709-0.007,1.122-0.021   c3.329-0.119,3.997-0.621,4.212-1.096c0.1-0.221,0.078-0.432,0.012-0.593c-0.029-0.13-0.1-0.255-0.205-0.358   c-0.127-0.122-0.328-0.238-0.69-0.297l1.581-0.82C95.203,70.435,95.242,70.052,95.155,69.787z M79.314,68.393   c-0.064,0.065-0.127,0.131-0.175,0.204c-0.505,0.116-2.106-0.362-3.985-1.035c0.597-0.269,1.403-0.672,2.537-1.294   c0.012-0.007,0.023-0.014,0.035-0.021C77.906,66.412,78.682,67.179,79.314,68.393z M41.46,46.277   c7.609-3.279,15.027-3.238,16.444-3.194c3.071,0.091,19.491,2.807,23.194,8.868c1.547,2.531,2.02,4.982,1.405,7.287   c-0.655,2.458-2.535,4.643-5.293,6.153c-2.473,1.354-3.25,1.595-3.453,1.637c-0.019-0.006-0.041-0.001-0.061-0.004   c-2.311-0.877-4.731-1.89-5.957-2.403c-1.054-0.441-1.749-0.733-2.032-0.829c-0.298-0.101-0.709-0.302-1.186-0.534   c-1.454-0.708-3.65-1.78-6.312-1.842c-1.701-0.039-4.031-0.807-6.554-1.715c1.241-0.575,3.628-1.514,7.07-2.126   c5.299-0.942,6.073-0.948,7.704-0.834c0.13,0.015,3.218,0.362,4.979,0.282c0.276-0.013,0.489-0.247,0.477-0.522   c-0.012-0.274-0.193-0.494-0.521-0.477c-0.853,0.038-2.061-0.032-3.057-0.111c0.759-0.766,2.019-1.97,3.263-2.857   c0.225-0.16,0.277-0.473,0.117-0.697c-0.16-0.225-0.473-0.276-0.697-0.117c-1.736,1.238-3.442,3.002-3.964,3.557   c-0.301-0.03-0.491-0.051-0.504-0.053c-0.223-0.016-0.431-0.03-0.635-0.04c0.033-0.68,0.151-2.004,0.577-3.389   c0.081-0.264-0.066-0.544-0.331-0.625c-0.265-0.083-0.544,0.067-0.624,0.331c-0.468,1.522-0.591,2.948-0.624,3.673   c-1.158,0.036-2.719,0.251-6.336,0.895c-1.725,0.307-3.189,0.691-4.39,1.074c0.08-0.34,0.145-0.724,0.145-1.081   c0-0.276-0.224-0.5-0.5-0.5s-0.5,0.224-0.5,0.5c0,0.514-0.187,1.151-0.294,1.474c-1.384,0.508-2.272,0.963-2.653,1.173   c-1.976-0.72-4.014-1.461-5.889-1.94c0.021-0.046,0.04-0.095,0.046-0.148c0.927-7.766-3.594-10.393-3.787-10.501   c-0.014-0.008-0.031-0.008-0.047-0.014C40.938,46.509,41.194,46.392,41.46,46.277z M8.54,59.078   c-0.003,0.002-0.252,0.209-0.501,0.146c-0.293-0.08-0.596-0.527-0.828-1.225c-0.181-0.54-0.333-1.489-0.088-1.812   c0.027-0.036,0.097-0.12,0.345-0.108c0.24,0.014,0.415-0.12,0.492-0.323c0.003-0.009,0.355-0.906,1.569-1.053   c1.037-0.13,1.546,0.034,2.231,1.191c-1.184,0.723-2.349,1.74-3.15,3.145C8.588,59.053,8.562,59.06,8.54,59.078z M8.691,61.731   c0.87-5.228,7.273-6.475,7.516-6.52c1.747-0.193,3.7,0.384,5.068,1.47c-0.175,0.437-0.708,1.281-2.236,1.379   c-0.077,0.004-1.832,0.136-2.174,2.705c-0.451,0.521-0.631,1.034-0.503,1.528c0.104,0.4,0.383,0.685,0.67,0.887   c0.002,0.001,0.002,0.003,0.004,0.004c0.346,0.26,0.753,1.215,0.969,1.901c-0.083,0.132-0.251,0.265-0.438,0.412   c-0.409,0.323-0.97,0.766-1.094,1.619c-0.119,0.828-0.144,0.844-1.44,1.64L14.637,69c-1.371,0.847-1.545,2.208-1.519,2.982   C9.641,69.486,7.83,66.904,8.691,61.731z M27.813,62.745c-0.053,0.011-0.104,0.03-0.151,0.058c-0.455,0.263-0.615,0.611-0.67,0.858   c-0.13,0.591,0.219,1.108,0.253,1.156c0.67,0.999,0.909,1.811,0.675,2.283c-0.207,0.416-0.764,0.533-0.863,0.539   c-0.082,0.003-0.163,0.025-0.234,0.067l-2.967,1.714c-0.189,0.108-0.285,0.328-0.238,0.541l0.241,1.087l-1.303-0.025   c-0.934-0.195-1.331,0.07-1.836,0.407c-0.237,0.158-0.506,0.337-0.915,0.532c-1.538,0.732-4.448,0.737-4.448,0.738   c-0.333-0.02-0.814-0.079-1.194-0.166c0.009-0.059,0.011-0.121-0.002-0.183c-0.015-0.068-0.342-1.67,1.004-2.503l0.393-0.241   c1.356-0.833,1.721-1.057,1.907-2.35c0.066-0.458,0.371-0.698,0.723-0.977c0.329-0.26,0.703-0.554,0.832-1.044   c0.023-0.087,0.022-0.179-0.003-0.266c-0.06-0.209-0.288-0.96-0.644-1.631c0.024-0.038,0.063-0.064,0.077-0.11   c0.078-0.265-0.073-0.542-0.337-0.621c-0.215-0.064-0.71-0.298-0.78-0.572c-0.043-0.167,0.079-0.408,0.277-0.635   c0.035-0.023,0.063-0.05,0.092-0.08c0.241-0.148,1.475-0.83,2.678-0.024c0.025,0.025,0.086,0.093,0.114,0.082   c-0.028,0.023-0.134,0.093-0.425,0.151c-0.271,0.055-0.446,0.318-0.392,0.589s0.322,0.447,0.589,0.391   c0.666-0.134,1.062-0.414,1.181-0.831c0.164-0.58-0.329-1.061-0.447-1.163c-1.1-0.742-2.182-0.658-2.943-0.425   c0.366-0.945,1.012-1.034,1.043-1.037c1.948-0.125,2.844-1.264,3.143-2.09c1.173-0.107,4.869-0.571,6.881-2.26   c0.223-0.187,0.47-0.407,0.73-0.64c-0.289,0.735-0.403,1.438-0.317,2.102c0.2,1.537,1.351,2.265,1.399,2.295   c0.02,0.012,0.043,0.009,0.063,0.018c0.092,1.165,0.319,2.354,0.807,3.133C30.932,62.015,29.09,62.489,27.813,62.745z    M70.457,72.969c-2.563,0.023-4.945,0.013-7.076-0.028c-2.542-0.047-5.169-0.034-7.709-0.024c-6.687,0.03-13,0.06-14.671-1.061   c-1.956-1.312-1.978-1.512-2.188-3.42c-0.031-0.285-0.066-0.603-0.111-0.962c-0.26-2.063,0.887-2.887,1.267-3.101   c0.048,0.009,0.109,0.02,0.152,0.029c1.487,0.313,2.562,0.539,6.985,1.905c2.98,0.922,5.1,1.267,6.646,1.519   c0.517,0.084,0.953,0.156,1.324,0.233c-5.292,0.182-7.346,0.927-8.849,1.632c-1.364,0.641-2.72,0.44-2.731,0.438   c-0.278-0.04-0.528,0.144-0.571,0.416s0.142,0.528,0.414,0.572c0.026,0.004,0.29,0.044,0.701,0.044c0.631,0,1.61-0.096,2.611-0.564   c1.631-0.766,3.962-1.581,11.026-1.581c0.054,0,0.104-0.015,0.153-0.031c2.415,0.875,6.198,2.129,10.01,2.297   c1.052,0.047,2.039,0.131,2.951,0.235c0.079,0.363,0.151,1.063,0.02,1.441C70.695,72.961,70.575,72.968,70.457,72.969z    M76.122,72.821c-0.56-0.021-1.141-0.041-1.766-0.031c-0.572,0.01-1.182,0.048-1.803,0.087c-0.235,0.014-0.472,0.028-0.709,0.041   c0.072-0.457,0.032-0.944-0.015-1.269c3.084,0.429,5.052,1.043,5.101,1.058c0.029,0.007,0.285,0.067,0.691,0.143   c-0.084,0-0.165,0.002-0.25,0.002C76.955,72.852,76.543,72.836,76.122,72.821z M89.577,72.919c-2.441,0.09-3.332-0.117-4.194-0.312   c-0.706-0.161-1.435-0.327-2.897-0.327c-3.079,0-5.276-0.535-5.28-0.535c-0.156-0.05-3.881-1.221-9.317-1.462   c-4.156-0.183-8.341-1.729-10.59-2.559c-0.688-0.254-1.186-0.438-1.524-0.529c-0.498-0.135-1.099-0.232-1.858-0.356   c-1.519-0.247-3.598-0.585-6.513-1.486c-4.467-1.38-5.561-1.61-7.075-1.929c-0.295-0.062-0.707-0.134-1.19-0.217   c-1.921-0.332-5.136-0.888-6.259-1.833c-0.96-0.808-1.039-4.256-0.863-6.239c0.024-0.275-0.179-0.518-0.454-0.542   c-0.267-0.026-0.518,0.178-0.542,0.454c-0.019,0.211-0.083,1.026-0.078,2.042c-0.184-0.257-0.36-0.606-0.416-1.063   c-0.146-1.194,0.585-2.678,2.114-4.29c0.054-0.057,0.087-0.124,0.109-0.194c0.867-0.705,1.863-1.453,3.014-2.208   c0.023-0.005,0.046-0.002,0.068-0.01l4.592-1.69c0.783,0.554,3.782,3.112,3.116,9.222c-0.381-0.246-0.772-0.604-0.916-1.108   c-0.075-0.265-0.35-0.42-0.618-0.344c-0.266,0.076-0.419,0.353-0.343,0.618c0.471,1.65,2.423,2.2,2.515,2.225   c1.858,0.473,3.906,1.219,5.886,1.94c3.076,1.121,5.981,2.18,8.126,2.23c2.443,0.057,4.439,1.03,5.897,1.741   c0.507,0.247,0.945,0.461,1.304,0.582c0.249,0.084,1.007,0.401,1.966,0.804c10.18,4.265,12.119,4.561,12.618,3.609   c0.411-0.786,4.498-1.043,5.852-0.537c0.566,0.213,1.107,0.257,1.542,0.292c0.103,0.008,0.225,0.019,0.327,0.03   c-0.272,0.189-1.214,0.324-2.204,0.229c-0.279-0.02-0.519,0.176-0.546,0.45c-0.026,0.274,0.175,0.519,0.45,0.546   c0.18,0.017,0.471,0.038,0.809,0.038c0.097,0,0.199-0.003,0.302-0.007c0.005,0.002,0.008,0.007,0.013,0.009   c2.154,0.947,2.992,0.452,3.092,0.372c1.094-0.643,1.668-0.795,1.996-0.788c-0.349,0.193-0.707,0.414-1.083,0.656   c-1.039,0.671-2.126,0.472-2.138,0.469c-0.266-0.056-0.532,0.119-0.588,0.39c-0.055,0.271,0.119,0.535,0.39,0.591   c0.023,0.005,0.255,0.05,0.611,0.05c0.556,0,1.417-0.11,2.268-0.659c0.952-0.614,1.724-1.068,2.447-1.13l-3.229,1.674   c-0.01,0.005-0.015,0.014-0.025,0.02c-0.028,0.017-0.051,0.039-0.075,0.06c-0.025,0.022-0.049,0.043-0.069,0.069   c-0.018,0.024-0.029,0.051-0.042,0.078c-0.015,0.031-0.031,0.06-0.039,0.094c-0.007,0.027-0.007,0.055-0.01,0.083   c-0.003,0.037-0.006,0.073,0,0.11c0.001,0.009-0.002,0.018,0,0.027c0.004,0.022,0.018,0.039,0.025,0.059   c0.008,0.024,0.009,0.05,0.021,0.073c0.004,0.008,0.013,0.011,0.018,0.018c0.041,0.071,0.095,0.13,0.163,0.172   c0.013,0.008,0.028,0.01,0.042,0.017c0.058,0.029,0.12,0.046,0.186,0.051c0.013,0.001,0.024,0.01,0.036,0.01   c0.014,0,0.027-0.009,0.041-0.01c0.019-0.002,0.037,0.004,0.057,0c1.08-0.215,1.68-0.238,1.999-0.222   C92.217,72.674,91.368,72.856,89.577,72.919z"/></g><text x="0" y="115" fill="#000000" font-size="5px" font-weight="bold" font-family="'Helvetica Neue', Helvetica, Arial-Unicode, Arial, Sans-serif">Created by Pelin Kahraman</text><text x="0" y="120" fill="#000000" font-size="5px" font-weight="bold" font-family="'Helvetica Neue', Helvetica, Arial-Unicode, Arial, Sans-serif">from the Noun Project</text></svg>