<svg xmlns="http://www.w3.org/2000/svg" xmlns:xlink="http://www.w3.org/1999/xlink" version="1.1" x="0px" y="0px" viewBox="0 0 100 125" enable-background="new 0 0 100 100" xml:space="preserve"><path fill="#000000" d="M73.312,73.457c0.694-1.181,1.1-2.552,1.1-4.019c0-4.385-3.562-7.951-7.941-7.951  c-4.389,0-7.96,3.566-7.96,7.951c0,1.528,0.44,2.951,1.191,4.165c-1.919-0.318-3.838-0.712-5.729-1.104  c-0.063-0.014-0.126-0.012-0.189-0.021c-0.068-0.009-0.136-0.019-0.205-0.021c-0.104-0.006-0.204-0.001-0.306,0.007  c-0.045,0.003-0.087-0.003-0.131,0.003c-6.217,0.81-12.648,1.647-18.864,1.26c-5.266-0.333-10.563-1.542-15.736-2.836  c1.94-7.479,3.776-15.169,3.981-22.91c0.232-8.55-1.478-17.017-3.131-25.205c-0.272-1.354-1.591-2.231-2.945-1.955  c-1.354,0.272-2.229,1.592-1.955,2.945c1.598,7.914,3.25,16.097,3.033,24.081c-0.212,8.009-2.369,16.247-4.456,24.219  c-0.001,0.003-0.001,0.005-0.001,0.007c-0.001,0.004-0.003,0.007-0.004,0.011c-0.021,0.086-0.025,0.171-0.038,0.257  c-0.012,0.078-0.031,0.157-0.035,0.235c-0.004,0.08,0.007,0.157,0.011,0.236c0.004,0.085,0,0.171,0.013,0.254  c0.013,0.082,0.039,0.159,0.059,0.238c0.02,0.076,0.032,0.155,0.059,0.229c0.032,0.09,0.078,0.172,0.119,0.258  c0.028,0.058,0.05,0.119,0.083,0.174c0.059,0.101,0.132,0.192,0.205,0.284c0.025,0.033,0.047,0.07,0.074,0.103  c0.095,0.106,0.201,0.203,0.313,0.293c0.014,0.011,0.024,0.024,0.037,0.034c0.263,0.202,0.567,0.355,0.908,0.442  c6.16,1.563,12.53,3.181,19.093,3.596c1.195,0.074,2.389,0.107,3.58,0.107c5.352,0,10.658-0.673,15.827-1.345  c4.288,0.89,8.701,1.778,13.189,1.778c0.406,0,0.812-0.007,1.22-0.022c6.632-0.238,13.045-2.635,19.274-4.963L85.278,69.6  C81.177,71.131,77.229,72.592,73.312,73.457z M66.471,66.487c1.622,0,2.941,1.324,2.941,2.951c0,1.628-1.319,2.953-2.941,2.953  c-1.632,0-2.96-1.325-2.96-2.953C63.511,67.812,64.839,66.487,66.471,66.487z"/><text x="0" y="115" fill="#000000" font-size="5px" font-weight="bold" font-family="'Helvetica Neue', Helvetica, Arial-Unicode, Arial, Sans-serif">Created by Lluisa Iborra</text><text x="0" y="120" fill="#000000" font-size="5px" font-weight="bold" font-family="'Helvetica Neue', Helvetica, Arial-Unicode, Arial, Sans-serif">from the Noun Project</text></svg>