<svg xmlns="http://www.w3.org/2000/svg" xmlns:xlink="http://www.w3.org/1999/xlink" version="1.1" x="0px" y="0px" viewBox="0 0 90 112.5" style="enable-background:new 0 0 90 90;" xml:space="preserve"><style type="text/css">
	.st0{fill:none;stroke:#000000;stroke-linecap:round;stroke-miterlimit:10;}
	.st1{fill:none;stroke:#000000;stroke-miterlimit:10;}
	.st2{stroke:#000000;stroke-miterlimit:10;}
	.st3{fill:#FFFFFF;stroke:#000000;stroke-linecap:round;stroke-miterlimit:10;}
	.st4{fill:#FFFFFF;}
	.st5{fill:none;stroke:#000000;stroke-linecap:round;stroke-linejoin:round;}
	.st6{fill:none;stroke:#27AAE1;stroke-miterlimit:10;}
</style><g><ellipse cx="46.513" cy="6.735" rx="0.492" ry="0.657"/><path d="M55.677,21.491c-0.375-0.785-0.573-0.975-1.161-1.31c-0.161-0.092-0.29-0.381-0.413-0.66   c-0.207-0.463-0.463-1.039-1.097-1.151c-0.627-0.11-0.82,0.541-0.922,0.891c-0.031,0.105-0.082,0.278-0.131,0.382   c-0.013-0.016-0.025-0.033-0.036-0.048c-0.139-0.19-0.463-0.637-1.098-0.449c-0.769,0.23-0.686,1.185-0.612,2.026   c0.033,0.375,0.094,1.073-0.002,1.203c-0.107,0.053-0.257-0.04-0.576-0.28c-0.382-0.288-1.022-0.771-1.716-0.261l-0.123,0.086   c-0.335-0.484-0.685-1.005-1.057-1.562c-0.654-0.977-1.392-2.081-2.244-3.262c-0.027-0.928,0.081-3.091,0.835-3.971   c0.113-0.042,0.515,0.013,0.782,0.048c0.655,0.088,1.398,0.187,1.926-0.182c0.742-0.52,0.745-1.177,0.749-2.009   c0.002-0.427,0.004-0.959,0.082-1.645c0.038-0.04,0.211-0.094,0.303-0.122c0.259-0.08,0.58-0.18,0.732-0.504   c0.065-0.138,0.115-0.365-0.013-0.668c-0.033-0.076-0.112-0.214-0.217-0.391c-0.236-0.395-0.727-1.217-0.727-1.713   c0-1.195-0.464-2.735-0.897-3.423c-0.462-0.734-1.351-1.315-2.488-1.672c-2.443-1.217-4.842-1.114-7.293,0.283   c-1.599,0.869-3.562,3.754-2.175,7.857c-2.39,3.566-1.94,8.33-1.536,9.115l0.194,0.327h0.301c0.075,0,0.457-0.026,0.545-0.528   c0.022-0.122,0.014-0.27,0.001-0.537c-0.05-0.981-0.155-3.1,1.129-4.815c-0.351,2.37-0.182,4.732,0.441,5.04   c0.073,0.037,0.157,0.057,0.243,0.057c0.078,0,0.157-0.026,0.233-0.062c-0.192,0.296-0.39,0.564-0.575,0.815   c-0.351,0.476-0.654,0.886-0.777,1.316c-0.305,1.085-0.974,4.417-0.415,6.777c0.294,1.229,0.58,2.104,0.885,3.03   c0.223,0.682,0.46,1.404,0.722,2.336c0.536,1.913,0.747,5.36,0.922,8.222c0.097,1.687-0.595,2.614-1.328,3.595   c-0.672,0.902-1.369,1.834-1.369,3.297c-0.011,2.062,0.54,3.275,0.905,4.079c0.168,0.368,0.3,0.66,0.32,0.897   c0.051,0.549,0.09,1.15,0.134,1.817c0.173,2.641,0.41,6.257,1.634,11.656c0.081,0.344-0.085,1.36-0.245,2.342   c-0.196,1.203-0.418,2.566-0.418,3.778c0,1.215,0.272,2.63,0.588,4.269c0.435,2.259,0.976,5.07,0.944,8.315   c0,1.005-0.184,1.494-0.398,2.061c-0.197,0.523-0.42,1.117-0.476,2.125c-0.002,0.036,0.006,0.11,0.012,0.146   c0.062,0.374,0.249,1.514,1.333,1.544c3.336,0,11.734-0.014,11.734-0.014c0.184,0,0.353-0.102,0.438-0.266   c0.037-0.071,0.213-0.447,0.058-0.893c-0.082-0.233-0.286-0.558-0.798-0.786c-0.384-0.168-0.891-0.361-1.457-0.578   c-1.911-0.727-5.091-1.937-5.518-3.199c-0.123-6.145,0.263-8.925,0.636-11.615c0.222-1.604,0.433-3.12,0.516-5.248   c0.025-0.666,0.307-1.52,0.556-2.275c0.181-0.546,0.351-1.062,0.426-1.499l0.108-0.64c0.556-3.258,1.711-10.022,1.157-16.794   c0.112-0.483,0.192-1.295,0.331-2.701c0.054-0.548,0.117-1.183,0.193-1.916l0.072-0.685c0.257-2.443,0.498-4.753,0.446-7.093   c2.039-2.386,3.832-5.321,4.003-7.158c0.01-0.104,0.252-0.327,0.467-0.523c0.159-0.146,0.337-0.31,0.53-0.512   C54.223,25.289,56.226,22.64,55.677,21.491z M37.943,16.359c-0.108-0.952-0.289-2.635,0.595-3.57   c0.09,0.281,0.169,0.559,0.223,0.829c0.064,0.671,0.046,1.546-0.574,2.955c-0.061,0.139-0.128,0.266-0.195,0.394   C37.994,16.815,37.973,16.623,37.943,16.359z M49.658,88.388c0.551,0.21,1.041,0.396,1.411,0.558   c0.04,0.017,0.074,0.035,0.103,0.052c-1.974,0.003-8.335,0.013-11.123,0.013c-0.174-0.005-0.28-0.199-0.367-0.701   c0.051-0.822,0.226-1.286,0.41-1.776c0.227-0.602,0.462-1.225,0.462-2.405c0.008-0.814-0.021-1.597-0.072-2.354   c0.974,0.44,2.064,0.415,3.001-0.07c-0.003,0.815,0.002,1.689,0.022,2.649c0.001,0.041,0.007,0.081,0.017,0.121   C44.01,86.238,47.274,87.481,49.658,88.388z M53.212,24.928c-0.17,0.177-0.332,0.326-0.477,0.459   c-0.396,0.363-0.738,0.677-0.783,1.161c-0.297,3.197-6.267,10.157-8.173,10.157c-1.364,0-3.826-5.69-4.879-11.276   c-0.05-0.269-0.313-0.446-0.578-0.394c-0.269,0.05-0.445,0.309-0.394,0.578c0.713,3.785,3.177,12.081,5.85,12.081   c1.016,0,2.596-1.171,4.161-2.798c-0.027,1.897-0.214,3.774-0.436,5.891l-0.027,0.257c-2.425,0.841-5.053,0.6-8.094-0.761   c-0.001-0.12,0.007-0.232-0.001-0.358c-0.172-2.816-0.387-6.321-0.951-8.337c-0.268-0.949-0.508-1.683-0.735-2.377   c-0.297-0.907-0.579-1.763-0.863-2.951c-0.507-2.144,0.139-5.333,0.405-6.279c0.073-0.256,0.327-0.6,0.621-0.998   c0.384-0.522,0.863-1.17,1.234-2.012c0.565-1.286,0.76-2.317,0.645-3.497c-0.097-0.485-0.248-0.971-0.421-1.455l0.021-0.004   c0.395-0.133,0.95-0.733,2.122-2.293l0.355-0.468L41.55,8.95c-0.34-0.387-0.487-0.891-0.401-1.383   c0.094-0.548,0.46-1.023,0.988-1.319c1.83-0.808,3.155-1.923,4.508-3.789c0.236,0.178,0.429,0.374,0.561,0.584   c0.311,0.494,0.745,1.835,0.745,2.896c0,0.769,0.543,1.678,0.867,2.22c0.023,0.039,0.044,0.074,0.065,0.107   c-0.004,0.001-0.007,0.002-0.011,0.003c-0.319,0.099-0.913,0.283-0.986,0.947c-0.025,0.2-0.042,0.384-0.055,0.559   c-0.269,0.016-0.887,0.138-0.874,0.472c0.011,0.281,0.404,0.513,0.835,0.597c0,0.044-0.001,0.092-0.001,0.134   c-0.004,0.83-0.028,0.994-0.327,1.203c-0.212,0.148-0.799,0.07-1.227,0.012c-0.641-0.086-1.247-0.168-1.599,0.235   c-1.291,1.471-1.139,4.724-1.131,4.862c0.005,0.095,0.037,0.187,0.093,0.265c0.878,1.212,1.639,2.349,2.31,3.352   c1.374,2.056,2.395,3.582,3.518,4.456c-0.216,1.207-0.581,1.847-1.196,2.118c-0.249,0.111-0.363,0.402-0.252,0.652   c0.008,0.018,0.023,0.03,0.033,0.046c-0.711,0.829-1.795,1.852-2.603,2.337c-0.298-1.51-0.323-2.52-0.341-3.495   c-0.023-1.161-0.044-2.258-0.523-4.024c-0.166-0.614-1.063-3.7-2.398-4.086c-0.651-0.188-1.119-0.089-1.568,0.007l0.1,0.484   l0.179,0.468c0.324-0.069,0.603-0.127,1.014-0.008c0.363,0.105,1.163,1.343,1.718,3.394c0.446,1.648,0.467,2.686,0.488,3.784   c0.024,1.214,0.05,2.588,0.645,4.936c0.056,0.224,0.258,0.373,0.479,0.373c0.04,0,0.081-0.005,0.122-0.015   c0.265-0.067,0.425-0.336,0.357-0.601c-0.019-0.077-0.033-0.144-0.052-0.218c1.364-0.692,3.548-2.916,3.97-3.913   c0.44-0.577,0.662-1.313,0.79-2.012c0.263-0.114,0.425-0.355,0.363-0.587c-0.061-0.228-0.313-0.356-0.591-0.332   c-0.579-0.416-1.165-1.09-1.797-1.947l0.124-0.086c0.072-0.056,0.123-0.07,0.545,0.247c0.372,0.28,0.933,0.702,1.604,0.379   c0.713-0.351,0.628-1.321,0.553-2.178c-0.022-0.251-0.055-0.627-0.041-0.864c0.155,0.206,0.452,0.555,0.996,0.441   c0.579-0.111,0.761-0.7,0.88-1.102c0.062,0.111,0.122,0.247,0.173,0.362c0.181,0.405,0.384,0.864,0.827,1.117   c0.405,0.231,0.467,0.267,0.756,0.872C54.912,22.322,53.887,24.193,53.212,24.928z"/></g><text x="0" y="105" fill="#000000" font-size="5px" font-weight="bold" font-family="'Helvetica Neue', Helvetica, Arial-Unicode, Arial, Sans-serif">Created by Minjeong Kim</text><text x="0" y="110" fill="#000000" font-size="5px" font-weight="bold" font-family="'Helvetica Neue', Helvetica, Arial-Unicode, Arial, Sans-serif">from the Noun Project</text></svg>