<svg xmlns="http://www.w3.org/2000/svg" xmlns:xlink="http://www.w3.org/1999/xlink" version="1.1" x="0px" y="0px" viewBox="0 0 100 125" enable-background="new 0 0 100 100" xml:space="preserve"><g><path d="M95.374,60.718c-0.076-0.03-0.182-0.072-0.257-0.141c-0.352-0.353-1.007-1.006-2.58-0.434   c-0.896,0.325-1.567,0.36-1.842,0.36c-0.093,0-0.141-0.008-0.134-0.002c-1.484-0.397-2.312-0.181-2.604-0.066   c-2.305,0.215-4.355-0.347-4.369-0.347c0,0,0,0.001,0.001,0.001c-5.342-2.236-7.721-2.584-10.239-2.952l-0.132-0.02   c-2.438-0.356-2.873-0.526-4.016-0.971c-1.119-0.436-2.889-0.817-5.919-1.278c-1.023-0.156-1.983-0.265-2.896-0.367   c-0.096-0.011-0.184-0.022-0.279-0.032c0.799-0.101,1.582-0.215,2.277-0.315c0.679-0.099,1.267-0.185,1.69-0.231   c1.521-0.172,2.686,0.275,2.779,0.305c5.496,1.152,10.726-0.035,13.535-0.673c0.615-0.141,1.13-0.258,1.524-0.323   c1.383-0.229,1.565-0.165,2.18,0.047c0.336,0.117,0.796,0.276,1.567,0.448c0.931,0.207,1.524,0.154,1.927-0.167   c0.521-0.415,0.525-1.125,0.53-1.877c0.001-0.263,0.003-0.547,0.025-0.845c0.108-1.466,0.908-2.431,0.903-2.431   c2.016-1.864,2.103-4.45,1.685-5.643c-0.28-0.796-0.739-0.944-0.989-0.963c-0.289-0.021-0.713-0.015-0.987,0.273   c-0.292,0.306-0.244,0.706-0.198,1.094l0.027,0.256c0.025,0.282-0.447,1.059-0.903,1.606L86.38,45.92   c-1.669,1.139-2.676,1.826-3.282,2.275c-0.649,0.48-3.529,0.48-5.077,0.48l-0.546,0.001c-6.124,0.007-9.59-0.167-10.288-0.524   c-1.354-0.697-3.059-0.614-3.186-0.604c-2.054,0.342-3.604,0.009-3.605,0.009c-3.004-0.776-10.486-0.629-11.835-0.567l-0.379,0.018   c-1.114,0.054-1.673,0.081-3.15-0.138c-0.062-0.009-0.101-0.019-0.156-0.028l0.47-0.229l1.479-0.009   c0.217-0.042,2.133-0.441,2.817-1.41c0.522-0.741,0.775-2.762,0.096-3.369c-0.254-0.229-0.698-0.325-1.175,0.097   c-0.052,0.046-0.109,0.08-0.163,0.119c-0.078-0.129-0.207-0.226-0.369-0.242c-0.145-0.016-1.432-0.144-2.12,0.009   c-0.575,0.129-1.243,0.884-1.994,1.782c-0.14,0.167-0.247,0.299-0.293,0.343c-0.09,0.072-0.325,0.197-0.716,0.405   c-0.286,0.152-0.665,0.353-1.169,0.63c-1.139,0.624-4.34,1.738-4.879,1.924c-2.394-0.003-3.89-0.322-3.893-0.322   c-4.562-1.278-5.818-0.422-6.422-0.011l-0.103,0.068c-0.408,0.255-1.192,0.608-2.071,0.937c-0.003,0.002-0.344,0.103-0.803,0.028   c-0.525-0.086-1.349,0.119-1.913,0.674c-0.354,0.349-0.747,0.977-0.6,1.982c0.073,0.495-0.137,0.625-0.347,0.683   c-0.431,0.171-1.375,0.098-1.972-0.001c0.009-0.581-0.133-1.041-0.457-1.345c-0.433-0.403-1.003-0.406-1.307-0.351l-1.713-0.312   l-0.095-0.756c-0.018-0.136-0.09-0.259-0.2-0.341c-0.11-0.081-0.249-0.11-0.385-0.089c-0.039,0.007-0.952,0.173-1.363,0.301   c-0.13,0.04-0.236,0.088-0.339,0.135c-0.159,0.071-0.26,0.114-0.492,0.102l-0.438-0.653c-0.083-0.125-0.219-0.205-0.368-0.22   c-0.357-0.032-2.075-0.173-2.899,0.095c-0.069-0.002-0.138,0.013-0.203,0.04c-0.952,0.122-1.724,0.519-2.277,1.209   c-1.275,1.587-0.941,4.082-0.931,4.143c0,0.011,0.021,0.304,0.134,0.743c-0.03-0.009-0.053-0.028-0.084-0.036   c-0.072-0.017-0.151-0.024-0.236-0.024c-0.443,0-1.274,0.26-1.617,0.957c-0.189,0.386-0.282,1.02,0.356,1.846   c0.831,1.076,1.769,1.669,2.639,1.669c0.428,0,0.811-0.148,1.106-0.429c0.191-0.181,0.268-0.385,0.283-0.595   c0.688,0.445,1.549,0.815,2.652,1.018c0.035,0.009,0.363,0.085,0.873,0.085c0.91,0,2.4-0.241,3.851-1.538   c0.037-0.033,0.06-0.074,0.085-0.114c0.781-0.136,1.944-0.078,2.679,0.018c0.402,0.022,0.936,0.195,0.997,0.375   c0.103,0.352,0.29,0.902,0.528,1.289c-0.058,0.245-0.089,0.515-0.063,0.807c0.084,0.938,0.683,1.802,1.781,2.565   c2.119,1.475,3.464,1.685,5.165,1.949c0.703,0.109,1.43,0.223,2.313,0.438c0.669,0.164,1.216,0.291,1.672,0.397   c1.598,0.371,1.977,0.459,2.573,0.935c0.942,0.752,3.165,1.85,5.82,2.481c1.521,0.362,2.392,0.848,3.16,1.275   c0.512,0.285,0.995,0.555,1.568,0.719c0.464,0.133,0.595,0.375,0.81,0.777c0.241,0.449,0.541,1.008,1.371,1.385   c0.056,0.025,0.115,0.04,0.176,0.044c0.356,0.022,0.958,0.126,1.226,0.313l0.562,0.312c0.075,0.041,0.159,0.062,0.243,0.062   c0.066,0,0.134-0.014,0.197-0.04l1.167-0.5c0.166-0.071,0.281-0.228,0.3-0.408l0.167-1.583c0.108-1.035-0.979-1.929-1.104-2.027   c-0.159-0.127-0.377-0.143-0.555-0.045c-0.046,0.026-0.07,0.072-0.105,0.109c-0.222-0.195-0.447-0.404-0.572-0.524   c-1.592-1.251-2.863-1.227-3.281-1.18c-0.635-0.22-2.898-1.847-4.138-2.736c-0.878-0.631-1.572-1.129-1.892-1.312   c-0.211-0.12-0.39-0.258-0.581-0.403c-0.599-0.456-1.343-1.023-3.242-1.462c-0.911-0.21-1.896-0.484-2.842-0.776   c2.407-0.654,5.065-0.644,7.002-0.489c0.939,0.075,2.235,0.714,3.735,1.453c0.81,0.398,1.646,0.811,2.545,1.196   c2.847,1.219,14.516,0.538,17.703,0.098c2.639-0.363,4.096,0.062,5.159,0.372c0.374,0.109,0.7,0.203,1.007,0.252   c0.354,0.056,0.661,0.219,1.049,0.425c0.724,0.386,1.715,0.912,3.675,1.079c2.587,0.22,9.622,0.154,11.934,0.132l0.608-0.005   c0.033,0,0.142,0.104,0.206,0.165c0.289,0.275,0.828,0.784,1.883,0.287c0.638-0.303,0.914-0.377,1.006-0.396   c0.953,0.279,1.863,0.359,2.668,0.431c0.746,0.065,1.39,0.122,1.739,0.322c0.354,0.202,0.709,0.304,1.049,0.304   c0.197,0,0.391-0.034,0.575-0.104c0.651-0.245,1.168-0.909,1.534-1.972C97.132,61.423,95.9,60.929,95.374,60.718z M83.693,48.998   c0.59-0.438,1.648-1.159,3.25-2.252l1.359-0.928c0.036-0.025,0.069-0.055,0.099-0.089c0.296-0.347,1.255-1.545,1.18-2.393   l-0.031-0.285c-0.01-0.083-0.021-0.186-0.026-0.263c0.025-0.003,0.057-0.005,0.093-0.006c0.076,0.053,0.26,0.382,0.308,1.019   c0.081,1.102-0.285,2.697-1.592,3.91c-0.043,0.049-1.05,1.219-1.186,3.052c-0.023,0.322-0.025,0.63-0.027,0.912   c-0.003,0.484-0.006,0.984-0.153,1.102c-0.049,0.038-0.275,0.154-1.087-0.027c-0.715-0.159-1.126-0.302-1.456-0.416   c-0.721-0.251-1.085-0.332-2.389-0.132c0.18-1.287-0.031-2.161-0.253-2.662C82.635,49.444,83.311,49.282,83.693,48.998z    M42.22,45.844c0.5-0.274,0.874-0.474,1.157-0.624c0.487-0.259,0.71-0.377,0.872-0.508c0.066-0.053,0.229-0.234,0.436-0.482   c0.281-0.336,1.137-1.361,1.445-1.446c0.003-0.001,0.008-0.001,0.011-0.002c-0.052,0.078-0.091,0.167-0.096,0.265   c-0.013,0.275,0.198,0.51,0.473,0.523c0.062,0.009,1.468,0.064,2.607-0.812c0.082,0.466-0.013,1.452-0.299,1.857   c-0.344,0.486-1.527,0.875-2.097,0.997h-1.5c-0.076,0-0.15,0.018-0.219,0.051l-1.542,0.75c-0.064,0.031-0.118,0.075-0.161,0.127   c-0.551-0.047-1.346-0.018-2.991,0.146C41.067,46.39,41.777,46.087,42.22,45.844z M23.409,48.578   c0.144,0.024,0.275,0.03,0.402,0.034c-0.56,0.246-1.253,0.599-1.739,0.854c0.052-0.189,0.147-0.352,0.285-0.489   C22.705,48.636,23.223,48.554,23.409,48.578z M4.615,55.762c-0.179-0.231-0.366-0.557-0.25-0.793   c0.117-0.24,0.512-0.398,0.729-0.399c0.156,0.036,0.333,0.268,0.401,0.409c0.019,0.039,0.042,0.075,0.069,0.108l0.744,0.887   c0.034,0.055,0.084,0.125,0.144,0.206c0.282,0.39,0.42,0.641,0.429,0.707C6.427,57.32,5.433,56.821,4.615,55.762z M10.714,57.059   c-4.196-0.773-4.436-4.082-4.448-4.265c-0.003-0.021-0.287-2.179,0.718-3.425c0.192-0.239,0.423-0.421,0.685-0.562   C7.52,49.381,7.53,50.1,7.934,50.902c0.023,0.048,0.067,0.104,0.105,0.141c0.003,0.004,0.366,0.377,0.773,1.682   c0.206,0.656,0.7,1.638,1.887,2.663c0.048,0.277,0.232,0.635,0.89,0.943c0.022,0.006,0.232,0.059,0.536,0.059   c0.124,0,0.263-0.01,0.412-0.034l1.007,0.188C12.071,57.341,10.799,57.08,10.714,57.059z M18.087,55.493   c-0.262-0.037-2.492-0.312-3.668,0.195l-0.523-0.098c0.052-0.06,0.106-0.117,0.156-0.185c0.044-0.086,0.251-0.531-0.022-0.914   c-0.196-0.277-0.542-0.381-1.024-0.312c-0.272,0.04-0.462,0.294-0.423,0.567c0.029,0.198,0.171,0.353,0.351,0.406   c-0.153,0.112-0.314,0.174-0.461,0.209c-0.007,0.001-0.015,0.002-0.022,0.004c-0.124,0.027-0.24,0.037-0.328,0.037   c-0.127,0-0.199-0.014-0.188-0.008c-0.207-0.101-0.252-0.175-0.255-0.175c0.004-0.057,0.119-0.208,0.244-0.301   c0.221-0.162,0.271-0.474,0.109-0.696c-0.162-0.224-0.475-0.273-0.698-0.112c-0.029,0.021-0.149,0.113-0.278,0.256   c-0.791-0.757-1.137-1.461-1.287-1.942c-0.401-1.283-0.792-1.835-0.973-2.037c-0.477-1.01-0.068-1.684,0.131-1.93   c0.006-0.002,0.012-0.001,0.017-0.004c0.347-0.154,1.484-0.14,2.31-0.077l0.43,0.641c0.076,0.114,0.195,0.191,0.331,0.215   c0.635,0.107,0.956-0.005,1.279-0.15c0.067-0.031,0.137-0.063,0.222-0.09c0.164-0.051,0.456-0.116,0.726-0.171l0.074,0.589   c0.027,0.217,0.191,0.391,0.406,0.43l2.173,0.396c0.069,0.012,0.165,0.004,0.234-0.014c0.061-0.016,0.331-0.044,0.477,0.1   c0.09,0.091,0.273,0.403,0.033,1.357c-0.068,0.268,0.094,0.539,0.362,0.606c0.041,0.011,0.082,0.016,0.122,0.016   c0.224,0,0.428-0.151,0.484-0.378c0-0.001,0-0.001,0-0.002c0.498,0.08,1.717,0.237,2.383-0.036   c0.404-0.078,0.919-0.442,1.046-1.136c0.011-0.005,0.023-0.003,0.034-0.009c0.824-0.447,2.289-1.195,2.711-1.301   c0.024-0.006,0.043-0.022,0.065-0.031c1.268,1.876-0.412,4.501-0.907,5.197c-1.07,0.22-3.024,1.347-4.001,1.938   c-0.01-0.032-0.021-0.064-0.03-0.097c-0.025-0.088-0.076-0.158-0.136-0.218C19.289,55.579,18.193,55.498,18.087,55.493z    M48.732,69.978l-0.137,1.292l-0.526,0.225c0.073-0.169,0.089-0.328,0.081-0.459c-0.004-0.067-0.023-0.13-0.039-0.193   c0.329-0.187,0.522-0.524,0.622-0.901C48.734,69.954,48.733,69.966,48.732,69.978z M36.895,62.758   c0.226,0.173,0.439,0.334,0.69,0.478c0.274,0.156,1.018,0.69,1.804,1.255c2.267,1.628,3.923,2.791,4.597,2.926   c0.063,0.013,0.142,0.012,0.211-0.003c0.044-0.011,1.074-0.213,2.538,0.934c0.072,0.07,0.692,0.666,1.096,0.946   c-0.031,0.372-0.113,0.652-0.208,0.691c-0.021,0.009-0.036,0.026-0.055,0.037c-0.251-0.226-0.506-0.379-0.595-0.428   c-0.052-0.028-0.107-0.048-0.166-0.057c-0.206-0.032-0.483-0.349-0.605-0.553c-0.141-0.236-0.445-0.317-0.685-0.174   c-0.236,0.141-0.315,0.445-0.176,0.683c0.053,0.089,0.513,0.84,1.209,1.012c0.328,0.198,0.605,0.487,0.604,0.591   c0,0-0.017,0.023-0.049,0.056c-0.412-0.138-0.86-0.197-1.078-0.216c-0.463-0.233-0.625-0.535-0.827-0.911   c-0.243-0.453-0.546-1.018-1.416-1.266c-0.463-0.133-0.877-0.363-1.357-0.631c-0.783-0.438-1.759-0.98-3.414-1.375   c-2.506-0.597-4.571-1.605-5.43-2.29c-0.772-0.617-1.326-0.746-2.97-1.128c-0.453-0.104-0.996-0.231-1.66-0.394   c-0.927-0.228-1.708-0.349-2.398-0.456c-1.636-0.255-2.817-0.438-4.748-1.781c-0.839-0.584-1.294-1.197-1.354-1.824   c-0.072-0.761,0.474-1.337,0.487-1.352c0.097-0.098,0.145-0.226,0.144-0.354c1.123-0.652,2.242-1.223,2.852-1.411l0.389,0.788   c-0.016,0.013-0.035,0.02-0.049,0.036c-0.186,0.204-0.171,0.521,0.033,0.706c0.059,0.054,1.45,1.313,2.88,1.964   c1.406,0.639,4.351,1.645,6.845,2.22C35.722,61.866,36.345,62.34,36.895,62.758z M73.375,63.116   c-1.755-0.149-2.605-0.602-3.289-0.966c-0.434-0.23-0.843-0.448-1.362-0.53c-0.27-0.042-0.555-0.128-0.882-0.224   c-1.149-0.335-2.722-0.795-5.577-0.402c-3.861,0.532-14.729,1.021-17.172-0.027c-0.875-0.375-1.7-0.781-2.497-1.174   c-1.593-0.784-2.968-1.462-4.098-1.552c-2.385-0.191-5.82-0.177-8.687,0.958c-0.897-0.311-1.68-0.613-2.208-0.853   c-0.611-0.278-1.226-0.692-1.709-1.053c-0.004-0.074-0.022-0.148-0.057-0.218l-0.932-1.886c0.717-1.018,2.825-4.466,0.445-6.935   c0.526-0.214,1.18-0.502,1.622-0.779l0.137-0.09c0.44-0.301,1.47-1.006,5.615,0.154c0.088,0.02,1.674,0.361,4.212,0.354   c0,0,0,0,0.001,0c0,0,0.001,0,0.001,0c0.877-0.002,1.865-0.045,2.946-0.158c3.043-0.318,3.391-0.231,4.022-0.075   c0.245,0.062,0.53,0.132,0.978,0.197c1.573,0.234,2.203,0.204,3.346,0.148l0.375-0.019c1.324-0.06,8.654-0.209,11.556,0.542   c0.07,0.015,1.745,0.382,3.948,0.011c0.016-0.002,1.51-0.069,2.62,0.501c1.118,0.574,6.066,0.637,10.746,0.636l0.545-0.001   c0.908,0,1.764-0.008,2.537-0.043c0.017,0.033,0.027,0.069,0.051,0.099c0.026,0.033,0.633,0.83,0.259,2.691   c-0.22,0.048-0.444,0.098-0.698,0.156c-2.927,0.665-7.825,1.775-13.025,0.695c-0.056-0.023-1.384-0.543-3.179-0.346   c-0.432,0.048-1.03,0.135-1.723,0.235c-2.001,0.291-4.734,0.688-6.412,0.576c-0.642-0.182-1.257-0.328-1.812-0.459   c-1.046-0.246-2.128-0.502-2.325-0.812c-0.449-0.705-0.817-1.152-0.832-1.171c-0.178-0.215-0.491-0.244-0.704-0.067   c-0.213,0.176-0.243,0.491-0.067,0.704c0.004,0.004,0.347,0.422,0.76,1.071c0.415,0.652,1.475,0.902,2.939,1.248   c0.562,0.133,1.183,0.279,1.834,0.464c1.461,0.416,3.012,0.591,4.653,0.776c0.9,0.102,1.848,0.209,2.857,0.362   c2.954,0.449,4.66,0.815,5.796,1.257c1.095,0.426,1.595,0.621,4.145,0.994l0.132,0.019c2.443,0.358,4.753,0.697,9.982,2.875   c0.037,0.166,0.248,1.221,0.031,2.256C78.182,63.289,74.87,63.242,73.375,63.116z M95.548,62.951   c-0.261,0.758-0.587,1.229-0.941,1.361c-0.217,0.081-0.478,0.037-0.775-0.133c-0.539-0.308-1.285-0.373-2.147-0.449   c-0.751-0.066-1.6-0.142-2.451-0.388c-0.256-0.129-0.682-0.056-1.738,0.444c-0.437,0.206-0.521,0.127-0.766-0.107   c-0.195-0.186-0.463-0.44-0.896-0.44l-0.618,0.005c-0.296,0.003-0.563,0.004-0.85,0.006c0.123-0.766,0.074-1.497,0.008-1.98   c0.907,0.155,2.266,0.303,3.759,0.153c0.056-0.005,0.125-0.027,0.176-0.051c0.008-0.003,0.612-0.273,2.056,0.108   c0.04,0.005,1.037,0.14,2.515-0.397c0.979-0.355,1.258-0.071,1.53,0.201c0.002,0.002,0.074,0.073,0.077,0.076   c0.141,0.136,0.323,0.208,0.516,0.286C95.528,61.858,95.877,61.997,95.548,62.951z"/><path d="M12.562,49.82c-0.276,0-0.5,0.224-0.5,0.5c0,0.081-0.037,0.345-0.157,0.473c-0.188,0.202-0.178,0.519,0.023,0.707   c0.097,0.09,0.22,0.135,0.342,0.135c0.134,0,0.267-0.054,0.365-0.158c0.415-0.444,0.427-1.085,0.427-1.156   C13.062,50.043,12.839,49.82,12.562,49.82z"/><path d="M16.442,53.332c-0.548,0.686-1.305,1.094-1.312,1.098c-0.243,0.129-0.336,0.432-0.207,0.676   c0.09,0.169,0.263,0.266,0.442,0.266c0.078,0,0.158-0.019,0.232-0.058c0.038-0.021,0.943-0.504,1.626-1.356   c0.172-0.216,0.138-0.53-0.078-0.703C16.93,53.084,16.616,53.117,16.442,53.332z"/></g><text x="0" y="115" fill="#000000" font-size="5px" font-weight="bold" font-family="'Helvetica Neue', Helvetica, Arial-Unicode, Arial, Sans-serif">Created by Pelin Kahraman</text><text x="0" y="120" fill="#000000" font-size="5px" font-weight="bold" font-family="'Helvetica Neue', Helvetica, Arial-Unicode, Arial, Sans-serif">from the Noun Project</text></svg>